Coordinates
version=1
nRows=60
nColumns=12
inDegrees=yes

Units are S.I. units (second, meters, Newtons, ...)
Angles are in degrees

endheader
time	SC_y	SC_z	SC_x	AC_y	AC_z	AC_x	GH_y	GH_z	GH_yy	EL_x	PS_y
       0.0              -20.69          38.58          61.13          50.53          1.905          5.528          6.971           55.2          52.31          53.87          58.81
    0.0216              -20.69          38.57          61.13          50.53          1.905          5.526          6.992           55.2          52.28          53.88          58.82
   0.04319              -20.69          38.56          61.13          50.53          1.905          5.523          7.013           55.2          52.25          53.88          58.83
   0.06479              -20.69          38.56          61.13          50.53          1.905          5.521          7.036           55.2          52.21          53.89          58.84
   0.08638               -20.7          38.55          61.13          50.54          1.906          5.518           7.06          55.19          52.17          53.89          58.85
     0.108               -20.7          38.55          61.14          50.54          1.906          5.515          7.086          55.19          52.13          53.89          58.87
    0.1296              -20.71          38.54          61.14          50.54          1.906          5.512          7.114          55.19          52.09           53.9          58.88
    0.1512              -20.71          38.53          61.14          50.54          1.906          5.509          7.143          55.19          52.04           53.9          58.89
    0.1728              -20.71          38.53          61.14          50.55          1.906          5.505          7.175          55.19          51.99          53.91          58.91
    0.1944              -20.72          38.52          61.15          50.55          1.906          5.501          7.209          55.19          51.94          53.91          58.92
     0.216              -20.73          38.51          61.15          50.55          1.906          5.497          7.246          55.19          51.88          53.92          58.94
    0.2375              -20.73           38.5          61.15          50.56          1.906          5.493          7.285          55.19          51.82          53.93          58.96
    0.2591              -20.74          38.49          61.15          50.56          1.906          5.488          7.327          55.18          51.75          53.93          58.98
    0.2807              -20.74          38.48          61.16          50.56          1.906          5.483          7.373          55.18          51.68          53.94           59.0
    0.3023              -20.75          38.46          61.16          50.57          1.906          5.478          7.423          55.18           51.6          53.95          59.02
    0.3239              -20.76          38.45          61.17          50.57          1.906          5.472          7.476          55.18          51.52          53.96          59.05
    0.3455              -20.77          38.44          61.17          50.58          1.907          5.465          7.535          55.18          51.43          53.97          59.07
    0.3671              -20.78          38.42          61.18          50.58          1.907          5.458          7.598          55.17          51.33          53.98           59.1
    0.3887              -20.79           38.4          61.18          50.59          1.907           5.45          7.668          55.17          51.22          53.99          59.13
    0.4103               -20.8          38.38          61.19           50.6          1.907          5.442          7.744          55.17           51.1           54.0          59.17
    0.4319              -20.81          38.36          61.19           50.6          1.907          5.433          7.827          55.17          50.97          54.02          59.21
    0.4535              -20.82          38.34           61.2          50.61          1.908          5.422          7.919          55.16          50.83          54.03          59.25
    0.4751              -20.84          38.32          61.21          50.62          1.908          5.411           8.02          55.16          50.67          54.05           59.3
    0.4967              -20.85          38.29          61.22          50.63          1.908          5.399          8.133          55.15          50.49          54.07          59.35
    0.5183              -20.87          38.26          61.23          50.64          1.908          5.385          8.258          55.15           50.3          54.09          59.41
    0.5399              -20.89          38.22          61.24          50.65          1.909          5.369          8.397          55.14          50.08          54.12          59.47
    0.5615              -20.92          38.19          61.25          50.66          1.909          5.352          8.554          55.14          49.83          54.14          59.54
    0.5831              -20.94          38.14          61.26          50.68          1.909          5.332          8.729          55.13          49.56          54.17          59.62
    0.6047              -20.97          38.09          61.28           50.7           1.91           5.31          8.928          55.12          49.25           54.2          59.72
    0.6263               -21.0          38.04           61.3          50.72           1.91          5.285          9.153          55.12          48.89          54.24          59.82
    0.6479              -21.04          37.97          61.32          50.74          1.911          5.257          9.411          55.11          48.49          54.29          59.94
    0.6694              -21.08           37.9          61.34          50.76          1.912          5.224          9.706           55.1          48.03          54.34          60.07
     0.691              -21.13          37.82          61.37          50.79          1.913          5.186          10.05          55.08          47.49          54.39          60.23
    0.7126              -21.19          37.72           61.4          50.83          1.913          5.142          10.44          55.07          46.87          54.46          60.41
    0.7342              -21.26          37.61          61.43          50.87          1.915           5.09          10.91          55.05          46.14          54.54          60.63
    0.7558              -21.34          37.47          61.48          50.91          1.916          5.029          11.45          55.03          45.29          54.63          60.88
    0.7774              -21.43          37.31          61.53          50.97          1.917          4.957           12.1          55.01          44.27          54.74          61.18
     0.799              -21.54          37.12          61.59          51.04          1.919          4.871          12.88          54.98          43.05          54.87          61.54
    0.8206              -21.68          36.89          61.66          51.12          1.921          4.766          13.82          54.94          41.57          55.03          61.97
    0.8422              -21.85           36.6          61.75          51.22          1.924          4.638          14.97           54.9          39.77          55.22           62.5
    0.8638              -22.06          36.25          61.86          51.34          1.927           4.48          16.39          54.85          37.54          55.46          63.16
    0.8854              -22.31          35.82           62.0          51.49          1.932          4.283          18.16          54.78          34.77          55.76          63.97
     0.907              -22.64          35.27          62.17          51.68          1.937          4.035          20.39           54.7          31.27          56.14           65.0
    0.9286              -23.05          34.57          62.39          51.93          1.944           3.72          23.23          54.59          26.83          56.62          66.31
    0.9502              -23.58          33.68          62.67          52.24          1.952          3.316          26.86          54.46          21.14          57.23          67.98
    0.9718              -24.25          32.53          63.03          52.64          1.963          2.798          31.52          54.28          13.84          58.01          70.13
    0.9934              -25.12          31.07           63.5          53.15          1.977          2.137          37.47          54.06          4.517          59.02          72.87
     1.015              -26.21          29.22          64.08          53.79          1.995          1.305          44.95          53.78         -7.207          60.28          76.32
     1.037              -27.53          26.98          64.79          54.57          2.016         0.2909          54.06          53.44         -21.49          61.81          80.52
     1.058              -29.07          24.38          65.61          55.48          2.041        -0.8842          64.63          53.05         -38.06           63.6          85.39
      1.08              -30.73          21.56           66.5          56.47          2.068         -2.157          76.07          52.62         -55.99          65.53          90.66
     1.101               -32.4          18.74          67.39          57.45          2.095         -3.429          87.51          52.19         -73.92          67.45          95.94
     1.123              -33.93          16.14          68.21          58.36          2.119         -4.604          98.08           51.8         -90.48          69.24          100.8
     1.145              -35.26          13.89          68.92          59.14          2.141         -5.618          107.2          51.46         -104.8          70.77          105.0
     1.166              -36.35          12.05           69.5          59.78          2.158          -6.45          114.7          51.18         -116.5          72.03          108.5
     1.188              -37.21          10.59          69.96          60.29          2.172         -7.111          120.6          50.95         -125.8          73.04          111.2
     1.209              -37.89           9.44          70.32          60.69          2.183         -7.629          125.3          50.78         -133.1          73.82          113.3
     1.231              -38.42          8.547           70.6           61.0          2.192         -8.033          128.9          50.65         -138.8          74.44          115.0
     1.253              -38.83          7.848          70.82          61.25          2.199         -8.348          131.7          50.54         -143.2          74.91          116.3
     1.274              -39.16          7.299           71.0          61.44          2.204         -8.596          134.0          50.46         -146.7          75.29          117.4
